<svg xmlns="http://www.w3.org/2000/svg" viewBox="0 0 792 96.08"><defs><style>.cls-1{fill:#fff;}.cls-2{fill:none;}.cls-3{fill:#202a5d;}.cls-4{fill:#c73d96;stroke:#fff;stroke-miterlimit:10;}</style></defs><g id="Layer_2" data-name="Layer 2"><g id="Layer_1-2" data-name="Layer 1"><g id="RIght-Head"><path class="cls-1" d="M658.36,0l-4.11,5.18h0c-5.35,7.47-14,14.42-21.23,17.55-4.73,2.05-8.63.37-11.71-3.65-4.87-6.35-12-8.95-20-9.66-11.95-1-23.58.95-35.08,3.61-3.35.78-6.33,1.11-9.66-.3-3.93-1.66-7.21,0-10,3.41A18.69,18.69,0,0,1,540,21.46c-6.13,2.7-12.71,4.54-18.83,7.25-5.65,2.51-10.66,5.9-10.2,12.69l-.31,9.89c.44,5.7,4.8,9,10.09,11.4,5.74,2.59,11.79,4.61,17.41,7.38a17,17,0,0,1,6.24,5.67c2.54,3.79,5.39,5,10,4.1a21.86,21.86,0,0,1,8,.1c10.62,1.92,21.09,4.7,31.79,6,10.24,1.24,19.34-1.56,26.35-9.5a19.64,19.64,0,0,1,10.41-5.87c39.5-7,76.76-65.47,76.76-65.47,1.12-2.1,2.39-4,3-5.1Z"/><g id="Right-Head-2" data-name="Right-Head"><g id="Right-Head-3" data-name="Right-Head"><rect class="cls-2" width="792" height="96.08" transform="translate(792 96.08) rotate(-180)"/><path class="cls-3" d="M697.43,4.13a13,13,0,0,1-2.94,2.7c-.57.34-1.19.63-1.74,1a10.3,10.3,0,0,0-1.51,1.29,28.67,28.67,0,0,1-3,2.62,20.47,20.47,0,0,1-3.46,2l-.06-.08a19.38,19.38,0,0,1,2.87-2.79,27.27,27.27,0,0,1,3.32-2.2,11.12,11.12,0,0,0,1.65-1.12c.51-.43,1-1,1.43-1.41a13,13,0,0,1,3.39-2.11Z"/><path class="cls-3" d="M676.86,4.27a7.91,7.91,0,0,1,2.26,2.12c.28.43.49.93.79,1.34A6.67,6.67,0,0,0,681,8.84,16.63,16.63,0,0,1,683.17,11a12.56,12.56,0,0,1,1.61,2.67l-.08.06a12.18,12.18,0,0,1-2.35-2,16.58,16.58,0,0,1-1.78-2.52,6.21,6.21,0,0,0-.9-1.25c-.36-.37-.81-.66-1.19-1a7.88,7.88,0,0,1-1.7-2.59Z"/><path class="cls-3" d="M683.45,0a13.77,13.77,0,0,1-2.85,2.71,13.73,13.73,0,0,1-3.44,1.91A13.53,13.53,0,0,1,680,1.91,13.73,13.73,0,0,1,683.45,0Z"/><path class="cls-3" d="M677.16,4.62a7.85,7.85,0,0,1-2.16-2A7.66,7.66,0,0,1,673.63,0a7.7,7.7,0,0,1,2.16,2A7.84,7.84,0,0,1,677.16,4.62Z"/><path class="cls-3" d="M677.15,4.67a19,19,0,0,1-4.82-.77c-.77-.25-1.52-.58-2.3-.8a14.81,14.81,0,0,0-2.39-.45,42.91,42.91,0,0,1-4.79-.87A29.92,29.92,0,0,1,658.24.19l0-.1a30,30,0,0,1,4.84.65,43,43,0,0,1,4.67,1.37,15.87,15.87,0,0,0,2.33.67c.8.15,1.62.2,2.43.31a19,19,0,0,1,4.64,1.48Z"/><path class="cls-3" d="M684.79,13.71a15.62,15.62,0,0,1,1.1,4.31c.06.74,0,1.5.12,2.23a13.36,13.36,0,0,0,.49,2.17,36.18,36.18,0,0,1,1,4.33,25.45,25.45,0,0,1,.27,4.46h-.1a24.31,24.31,0,0,1-1.22-4.29,34.34,34.34,0,0,1-.49-4.42,13.48,13.48,0,0,0-.26-2.2c-.17-.73-.43-1.43-.63-2.15a16,16,0,0,1-.38-4.43Z"/><path class="cls-3" d="M665.28,18.79a20.26,20.26,0,0,1,4.77-1.64c.83-.14,1.68-.21,2.5-.39A17.09,17.09,0,0,0,675,16a45.18,45.18,0,0,1,4.79-1.53,31.85,31.85,0,0,1,5-.81l0,.1A30.67,30.67,0,0,1,680,15.51a43,43,0,0,1-4.92,1,16.81,16.81,0,0,0-2.46.53c-.8.25-1.58.61-2.37.89a20,20,0,0,1-5,.92Z"/><path class="cls-3" d="M658.3.12a19.73,19.73,0,0,1,2.1,4.55c.23.8.38,1.63.64,2.42a16.1,16.1,0,0,0,1,2.3A44.09,44.09,0,0,1,664,14a30.7,30.7,0,0,1,1.31,4.85l-.09,0a30.25,30.25,0,0,1-2.21-4.5,43.38,43.38,0,0,1-1.52-4.77,17.3,17.3,0,0,0-.78-2.37c-.33-.77-.76-1.5-1.12-2.25A20.13,20.13,0,0,1,658.2.16Z"/><path class="cls-3" d="M665.3,18.88a16.33,16.33,0,0,1-4.45.83c-.76,0-1.52-.06-2.27,0a14.14,14.14,0,0,0-2.23.34,35.86,35.86,0,0,1-4.47.72,25.4,25.4,0,0,1-4.53,0v-.09a25.28,25.28,0,0,1,4.44-.95,35.58,35.58,0,0,1,4.51-.2,14.21,14.21,0,0,0,2.26-.12c.74-.12,1.47-.34,2.21-.49a16.74,16.74,0,0,1,4.53-.1Z"/><path class="cls-3" d="M667.3,38.67a19.43,19.43,0,0,1-.88-4.92c0-.83,0-1.67,0-2.5a17.33,17.33,0,0,0-.37-2.47,43.53,43.53,0,0,1-.77-4.93,29.92,29.92,0,0,1,0-5h.1a31,31,0,0,1,1,4.91,43.48,43.48,0,0,1,.25,5,17.17,17.17,0,0,0,.15,2.49c.12.83.35,1.64.51,2.46a19.8,19.8,0,0,1,.15,5Z"/><path class="cls-3" d="M685.29,34a17.35,17.35,0,0,1-4.39,1.53c-.76.13-1.55.18-2.3.34a14.65,14.65,0,0,0-2.22.7A36.56,36.56,0,0,1,672,38a26.34,26.34,0,0,1-4.61.72l0-.1A27.45,27.45,0,0,1,671.69,37a39,39,0,0,1,4.55-.93,14.3,14.3,0,0,0,2.27-.48c.74-.23,1.45-.57,2.18-.83a17.22,17.22,0,0,1,4.58-.83Z"/><path class="cls-3" d="M663.41,54.49a13.32,13.32,0,0,1,.61-4c.24-.65.54-1.27.74-1.92a10.47,10.47,0,0,0,.37-2,28.44,28.44,0,0,1,.73-4,20.61,20.61,0,0,1,1.44-3.85l.09,0a20.41,20.41,0,0,1-.5,4.07,29.85,29.85,0,0,1-1.22,3.9,11.36,11.36,0,0,0-.6,2c-.12.66-.15,1.36-.24,2a13.46,13.46,0,0,1-1.33,3.87Z"/><path class="cls-3" d="M647.43,38.62a19.46,19.46,0,0,1,5-.37c.83.07,1.66.22,2.49.25a16,16,0,0,0,2.49-.11,43.72,43.72,0,0,1,5-.26,31.11,31.11,0,0,1,5,.49v.1a31.1,31.1,0,0,1-5,.48,43.72,43.72,0,0,1-5-.26,16,16,0,0,0-2.49-.11c-.83,0-1.66.18-2.49.25a19.92,19.92,0,0,1-5-.36Z"/><path class="cls-3" d="M647.39,20.68a16.33,16.33,0,0,1,.39,4.5c-.07.75-.21,1.5-.24,2.25a12.89,12.89,0,0,0,.12,2.24,35.77,35.77,0,0,1,.28,4.5,25.44,25.44,0,0,1-.46,4.5h-.1a24.62,24.62,0,0,1-.51-4.5,35.66,35.66,0,0,1,.24-4.49,14.13,14.13,0,0,0,.1-2.25c0-.75-.19-1.5-.26-2.25a15.84,15.84,0,0,1,.34-4.49Z"/><path class="cls-3" d="M651.18,9.27a7.52,7.52,0,0,1-.6,3c-.21.47-.52.91-.71,1.38a6.33,6.33,0,0,0-.37,1.5,16.67,16.67,0,0,1-.7,3,11.87,11.87,0,0,1-1.41,2.77l-.09,0a11.86,11.86,0,0,1,.48-3.06A15.7,15.7,0,0,1,649,15a6.31,6.31,0,0,0,.58-1.43c.13-.49.13-1,.23-1.53a7.9,7.9,0,0,1,1.3-2.81Z"/><path class="cls-3" d="M633,22.68a10.46,10.46,0,0,1,3.52-.87c.61,0,1.22.05,1.82,0a9.21,9.21,0,0,0,1.78-.36,21.6,21.6,0,0,1,3.53-.77,15.81,15.81,0,0,1,3.64,0l0,.09a15.87,15.87,0,0,1-3.51,1,21.69,21.69,0,0,1-3.61.26,9,9,0,0,0-1.8.14c-.59.12-1.16.36-1.75.51a10.5,10.5,0,0,1-3.63.15Z"/><path class="cls-3" d="M630.31,29.66a2.93,2.93,0,0,1,.33-1.87c.17-.27.43-.5.57-.78a2.31,2.31,0,0,0,.23-.91,6.21,6.21,0,0,1,.44-1.83A4.61,4.61,0,0,1,633,22.71l.09,0a4.64,4.64,0,0,1-.22,1.91A6.16,6.16,0,0,1,632,26.3a2.41,2.41,0,0,0-.45.83c-.08.3,0,.65-.1,1a2.89,2.89,0,0,1-1,1.6Z"/><path class="cls-3" d="M647.4,38.71A18.87,18.87,0,0,1,643,36.79c-.67-.44-1.32-.94-2-1.35a15.63,15.63,0,0,0-2.19-1,41.4,41.4,0,0,1-4.39-2,29.47,29.47,0,0,1-4-2.68l0-.09a28.89,28.89,0,0,1,4.49,1.82A40.59,40.59,0,0,1,639,33.93a15.5,15.5,0,0,0,2.08,1.22c.73.34,1.51.59,2.25.9a18.67,18.67,0,0,1,4.1,2.57Z"/><path class="cls-3" d="M638.85,56.86a20,20,0,0,1,1.8-4.71c.42-.73.91-1.42,1.29-2.17a17.47,17.47,0,0,0,1-2.32,46.12,46.12,0,0,1,1.9-4.67,30.75,30.75,0,0,1,2.57-4.34l.09,0a31.27,31.27,0,0,1-1.69,4.76,45,45,0,0,1-2.37,4.44,16.35,16.35,0,0,0-1.17,2.23c-.32.77-.55,1.6-.84,2.39a20.2,20.2,0,0,1-2.46,4.39Z"/><path class="cls-3" d="M663.46,54.56a30.23,30.23,0,0,1-6.11.95c-1,0-2.06,0-3.09.05a24.19,24.19,0,0,0-3.06.41c-2,.39-4.07.64-6.12.85a45.48,45.48,0,0,1-6.18.11v-.1A47.06,47.06,0,0,1,645,55.76c2-.19,4.1-.34,6.17-.34a26.38,26.38,0,0,0,3.08-.18c1-.14,2-.38,3-.55a29.65,29.65,0,0,1,6.18-.23Z"/><path class="cls-3" d="M623.44,73.8A26.37,26.37,0,0,1,627,69.32c.7-.66,1.45-1.27,2.11-1.95A21.42,21.42,0,0,0,631,65.18c1.14-1.55,2.38-3,3.66-4.42a42.18,42.18,0,0,1,4.21-3.91l.08.07a41.11,41.11,0,0,1-3.5,4.56,53.49,53.49,0,0,1-4,4.06,24.31,24.31,0,0,0-2,2c-.61.73-1.15,1.53-1.73,2.29a26.45,26.45,0,0,1-4.13,4Z"/><path class="cls-3" d="M620.45,50.2a19.16,19.16,0,0,1,4.74,1.32c.74.34,1.46.75,2.22,1.07a17.55,17.55,0,0,0,2.34.72,41.89,41.89,0,0,1,4.71,1.41,29.67,29.67,0,0,1,4.45,2.12l0,.09a30.55,30.55,0,0,1-4.77-1.2,39.87,39.87,0,0,1-4.53-1.91,17.17,17.17,0,0,0-2.27-.93c-.78-.24-1.6-.38-2.39-.59a19,19,0,0,1-4.49-2Z"/><path class="cls-3" d="M630.4,29.7a26.64,26.64,0,0,1-2.15,5.3c-.48.83-1,1.62-1.47,2.46a21,21,0,0,0-1.14,2.62c-.65,1.8-1.43,3.54-2.25,5.26a38.88,38.88,0,0,1-2.91,4.93l-.09,0a39.6,39.6,0,0,1,2-5.35c.84-1.71,1.71-3.41,2.72-5a20.91,20.91,0,0,0,1.34-2.52c.38-.87.66-1.79,1-2.68a26.14,26.14,0,0,1,2.81-5Z"/><path class="cls-3" d="M617.23,14.89a19,19,0,0,1,3.56,3.44c.5.67.94,1.38,1.46,2A16,16,0,0,0,624,22.12a42.68,42.68,0,0,1,3.48,3.51,29.87,29.87,0,0,1,2.93,4l-.07.07a29.28,29.28,0,0,1-3.65-3.37,42.91,42.91,0,0,1-3.1-3.86A17,17,0,0,0,622,20.56c-.58-.59-1.23-1.11-1.84-1.67a20,20,0,0,1-3-3.93Z"/><path class="cls-3" d="M609.06,35.25A23.24,23.24,0,0,1,610.74,30c.4-.82.87-1.62,1.25-2.45a19.84,19.84,0,0,0,.9-2.59,51.91,51.91,0,0,1,1.79-5.18,36.38,36.38,0,0,1,2.47-4.91l.09,0a38,38,0,0,1-1.57,5.27c-.69,1.69-1.41,3.36-2.27,5a19.21,19.21,0,0,0-1.11,2.5c-.31.86-.51,1.76-.78,2.63a23.65,23.65,0,0,1-2.36,5Z"/><path class="cls-3" d="M620.39,50.28a17.63,17.63,0,0,1-3.12-3.52c-.42-.67-.77-1.38-1.22-2a15.16,15.16,0,0,0-1.5-1.81,37.2,37.2,0,0,1-3-3.59,27.74,27.74,0,0,1-2.45-4l.08-.06a26.87,26.87,0,0,1,3.22,3.45,38.56,38.56,0,0,1,2.63,3.9,14.4,14.4,0,0,0,1.32,1.94c.5.61,1.09,1.14,1.62,1.72a17.66,17.66,0,0,1,2.54,4Z"/><path class="cls-3" d="M613.11,62a9.47,9.47,0,0,1,1.51-3.13c.35-.46.79-.87,1.12-1.34a7.75,7.75,0,0,0,.82-1.53,20.42,20.42,0,0,1,1.6-3.08,14.84,14.84,0,0,1,2.23-2.68l.09.05a15.53,15.53,0,0,1-1.41,3.19A21.46,21.46,0,0,1,617,56.28a8.18,8.18,0,0,0-1,1.41c-.28.51-.45,1.08-.7,1.61A9.65,9.65,0,0,1,613.19,62Z"/><path class="cls-3" d="M623.44,73.87a12.51,12.51,0,0,1-2.86-2.71c-.38-.54-.7-1.13-1.1-1.65a9.61,9.61,0,0,0-1.38-1.4,27,27,0,0,1-2.77-2.79,19,19,0,0,1-2.22-3.27l.08-.07a19.5,19.5,0,0,1,2.94,2.64,26.13,26.13,0,0,1,2.39,3.13,10,10,0,0,0,1.2,1.55c.46.47,1,.86,1.49,1.31a12.49,12.49,0,0,1,2.3,3.19Z"/><path class="cls-3" d="M603.82,85.79a32,32,0,0,1,2-6.08c.45-1,1-1.9,1.39-2.88a24.55,24.55,0,0,0,1.06-3c.6-2,1.31-4,2.08-6A51.71,51.71,0,0,1,613.1,62l.09,0a49.7,49.7,0,0,1-1.87,6.12c-.77,2-1.61,3.94-2.56,5.85A26.26,26.26,0,0,0,607.5,77c-.36,1-.61,2-.93,3.06a32.11,32.11,0,0,1-2.66,5.82Z"/><path class="cls-3" d="M602.45,52.58a10.17,10.17,0,0,1,2.92,2.07c.41.44.75,1,1.18,1.37A8.84,8.84,0,0,0,608,57.11a20.82,20.82,0,0,1,2.86,2.16A15.41,15.41,0,0,1,613.18,62l-.06.08a16.36,16.36,0,0,1-3-2,21.6,21.6,0,0,1-2.51-2.55,8.4,8.4,0,0,0-1.27-1.26c-.47-.37-1-.64-1.51-1a10.57,10.57,0,0,1-2.44-2.63Z"/><path class="cls-3" d="M609.15,35.28a17.48,17.48,0,0,1-1.33,4.47c-.35.7-.76,1.37-1.07,2.08A14,14,0,0,0,606,44a37.5,37.5,0,0,1-1.43,4.43,26.28,26.28,0,0,1-2.12,4.16l-.09,0a26.67,26.67,0,0,1,1.22-4.52,37.41,37.41,0,0,1,1.91-4.24,13.93,13.93,0,0,0,.94-2.13c.25-.73.39-1.51.6-2.26a17.46,17.46,0,0,1,2-4.2Z"/><path class="cls-3" d="M601.35,9.41a35.74,35.74,0,0,1,2.3,6.35c.26,1.1.45,2.22.74,3.31a28.5,28.5,0,0,0,1.08,3.19c.83,2.1,1.54,4.24,2.19,6.39a56.77,56.77,0,0,1,1.49,6.6l-.1,0A58.23,58.23,0,0,1,606.64,29c-.64-2.16-1.23-4.33-1.7-6.54a28.48,28.48,0,0,0-.87-3.26c-.36-1.07-.82-2.1-1.21-3.16a35.69,35.69,0,0,1-1.6-6.56Z"/><path class="cls-3" d="M589.77,38a47.12,47.12,0,0,1,2.53-7.28c.55-1.17,1.16-2.3,1.67-3.48a38.26,38.26,0,0,0,1.34-3.62c.78-2.45,1.67-4.86,2.63-7.24a75.19,75.19,0,0,1,3.32-7l.09,0a74,74,0,0,1-2.42,7.33c-1,2.38-2,4.74-3.11,7.05-.56,1.16-1.1,2.33-1.54,3.53s-.79,2.45-1.21,3.67a46.13,46.13,0,0,1-3.21,7Z"/><path class="cls-3" d="M572.72,11.6a49.49,49.49,0,0,1,4.59,6.4c.65,1.14,1.25,2.31,1.93,3.43s1.45,2.19,2.24,3.24c1.58,2.1,3.07,4.26,4.5,6.46A76.66,76.66,0,0,1,589.86,38l-.09,0c-1.69-2-3.22-4.16-4.69-6.33S582.29,27.27,581,25c-.65-1.15-1.31-2.28-2-3.36s-1.58-2.1-2.36-3.16a50,50,0,0,1-4-6.79Z"/><path class="cls-3" d="M576.19,52.74a20.32,20.32,0,0,1,3.13-3.94c.62-.56,1.29-1.08,1.89-1.67a17.41,17.41,0,0,0,1.61-1.92A44.21,44.21,0,0,1,586,41.34,30.87,30.87,0,0,1,589.78,38l.07.07a30.84,30.84,0,0,1-3,4,44.19,44.19,0,0,1-3.59,3.52,17.5,17.5,0,0,0-1.78,1.77c-.53.64-1,1.35-1.51,2a20.28,20.28,0,0,1-3.66,3.44Z"/><path class="cls-3" d="M602.38,52.65A18.83,18.83,0,0,1,599,49.23c-.47-.65-.89-1.35-1.38-2a16.14,16.14,0,0,0-1.66-1.75A40.75,40.75,0,0,1,592.56,42a27.92,27.92,0,0,1-2.78-4l.07-.06a28.5,28.5,0,0,1,3.52,3.33,43.65,43.65,0,0,1,3,3.82,15.4,15.4,0,0,0,1.49,1.9c.56.59,1.19,1.1,1.77,1.66a18.72,18.72,0,0,1,2.87,3.89Z"/><path class="cls-3" d="M591.78,63.12a11.18,11.18,0,0,1,2.39-2.89c.49-.4,1-.72,1.51-1.14a9.77,9.77,0,0,0,1.24-1.4,23.75,23.75,0,0,1,2.47-2.82,17.4,17.4,0,0,1,3-2.29l.07.07a17.43,17.43,0,0,1-2.31,3,25.5,25.5,0,0,1-2.83,2.45,9.2,9.2,0,0,0-1.4,1.24c-.42.46-.75,1-1.15,1.5a11.2,11.2,0,0,1-2.91,2.37Z"/><path class="cls-3" d="M603.82,85.83a32.45,32.45,0,0,1-3.34-5.49c-.43-1-.81-2-1.28-3a28.54,28.54,0,0,0-1.6-2.78c-1.17-1.8-2.24-3.65-3.24-5.54a52.55,52.55,0,0,1-2.59-5.89l.09,0a53.46,53.46,0,0,1,3.44,5.44c1,1.89,2,3.81,2.78,5.78a27.56,27.56,0,0,0,1.41,2.89c.53.93,1.16,1.8,1.73,2.71a32.91,32.91,0,0,1,2.69,5.84Z"/><path class="cls-3" d="M579.1,83.33A28,28,0,0,1,582,78.09c.59-.81,1.24-1.57,1.8-2.39a25.55,25.55,0,0,0,1.49-2.59c.88-1.79,1.9-3.5,3-5.19a44.43,44.43,0,0,1,3.57-4.79l.09,0a44.49,44.49,0,0,1-2.76,5.31,58.67,58.67,0,0,1-3.39,4.91A25.57,25.57,0,0,0,584,75.87c-.49.86-.9,1.78-1.37,2.66a28.31,28.31,0,0,1-3.48,4.85Z"/><path class="cls-3" d="M576.26,52.73a18.05,18.05,0,0,1,4.1,2.29c.61.5,1.18,1,1.81,1.51a13.57,13.57,0,0,0,2,1.21,38.89,38.89,0,0,1,4,2.38,27.06,27.06,0,0,1,3.62,3l-.05.08A27.57,27.57,0,0,1,587.62,61a39.07,39.07,0,0,1-3.75-2.82A15,15,0,0,0,582,56.8c-.67-.4-1.4-.71-2.09-1.08a17.73,17.73,0,0,1-3.7-2.9Z"/><path class="cls-3" d="M565.88,38.64A15.38,15.38,0,0,1,568.77,42c.37.63.69,1.3,1.09,1.91a14.12,14.12,0,0,0,1.39,1.7,33.23,33.23,0,0,1,2.81,3.37,23.61,23.61,0,0,1,2.21,3.82l-.08.06a23.52,23.52,0,0,1-3-3.25,33.61,33.61,0,0,1-2.39-3.68,12.33,12.33,0,0,0-1.21-1.83c-.46-.56-1-1.06-1.5-1.61a15.39,15.39,0,0,1-2.31-3.74Z"/><path class="cls-3" d="M572.72,11.64a38.44,38.44,0,0,1-1.35,6.85c-.36,1.11-.78,2.2-1.1,3.32a32.7,32.7,0,0,0-.75,3.4c-.39,2.3-.89,4.57-1.46,6.83a61.31,61.31,0,0,1-2.18,6.64l-.09,0A60.6,60.6,0,0,1,567,31.78c.57-2.26,1.21-4.49,2-6.7a30.41,30.41,0,0,0,1-3.35c.25-1.14.4-2.3.61-3.44a38.14,38.14,0,0,1,2.07-6.67Z"/><path class="cls-3" d="M556.62,12.71a38.72,38.72,0,0,1,2.66,6.36c.32,1.11.56,2.24.92,3.33a32.34,32.34,0,0,0,1.26,3.21c.95,2.09,1.79,4.23,2.56,6.39a57.93,57.93,0,0,1,1.86,6.65l-.09,0A59,59,0,0,1,563,32.36c-.77-2.16-1.48-4.34-2.08-6.57a31.28,31.28,0,0,0-1.05-3.28c-.42-1.07-.94-2.1-1.4-3.16a38.3,38.3,0,0,1-2-6.6Z"/><path class="cls-3" d="M546.61,37.57a35.66,35.66,0,0,1,2.14-6.35c.48-1,1-2,1.47-3a28.83,28.83,0,0,0,1.14-3.15c.65-2.14,1.41-4.24,2.23-6.31a57.92,57.92,0,0,1,2.93-6l.09,0a55.8,55.8,0,0,1-2,6.39c-.83,2.07-1.72,4.12-2.72,6.12a29.79,29.79,0,0,0-1.35,3.07c-.38,1.05-.65,2.14-1,3.2a34.89,34.89,0,0,1-2.82,6.08Z"/><path class="cls-3" d="M559.2,53.06a20,20,0,0,1-3.43-3.63c-.47-.69-.88-1.42-1.37-2.09a17.23,17.23,0,0,0-1.66-1.86,41.62,41.62,0,0,1-3.35-3.69,30.18,30.18,0,0,1-2.77-4.17l.07-.06a31.13,31.13,0,0,1,3.53,3.55,43.26,43.26,0,0,1,2.94,4,17,17,0,0,0,1.49,2c.55.62,1.19,1.17,1.77,1.77A19.35,19.35,0,0,1,559.28,53Z"/><path class="cls-3" d="M565.88,38.69a12.61,12.61,0,0,1-1.32,3.74c-.33.57-.74,1.11-1,1.69a10,10,0,0,0-.72,1.84,26.65,26.65,0,0,1-1.42,3.7,19.53,19.53,0,0,1-2.08,3.39l-.09,0a19.55,19.55,0,0,1,1.2-3.8,28.63,28.63,0,0,1,1.89-3.48,11.26,11.26,0,0,0,.93-1.75c.24-.61.38-1.27.59-1.9a12.55,12.55,0,0,1,2-3.43Z"/><path class="cls-3" d="M566.55,63.19a8.12,8.12,0,0,1-2.14-2.32c-.25-.46-.43-1-.71-1.42a6.37,6.37,0,0,0-1-1.2,16.45,16.45,0,0,1-2-2.38,12.05,12.05,0,0,1-1.45-2.81l.08-.06a12.17,12.17,0,0,1,2.23,2.25,17.25,17.25,0,0,1,1.63,2.68,6.43,6.43,0,0,0,.82,1.33c.33.41.77.73,1.13,1.12a8.15,8.15,0,0,1,1.54,2.75Z"/><path class="cls-3" d="M576.27,52.81a9.91,9.91,0,0,1-2.15,2.84c-.44.39-1,.72-1.39,1.13a8.7,8.7,0,0,0-1.12,1.37,21.38,21.38,0,0,1-2.22,2.77,15.24,15.24,0,0,1-2.77,2.27l-.07-.07a16,16,0,0,1,2.06-2.92,21.35,21.35,0,0,1,2.6-2.42,8.75,8.75,0,0,0,1.29-1.22c.37-.46.66-1,1-1.47a10.06,10.06,0,0,1,2.67-2.35Z"/><path class="cls-3" d="M579.1,83.38a28.14,28.14,0,0,1-3.45-4.85c-.46-.88-.86-1.8-1.35-2.66a23.78,23.78,0,0,0-1.67-2.47c-1.21-1.58-2.3-3.23-3.36-4.91a44.3,44.3,0,0,1-2.73-5.31l.09,0a43.39,43.39,0,0,1,3.55,4.8c1,1.68,2,3.39,2.92,5.18a25.38,25.38,0,0,0,1.47,2.59c.56.82,1.2,1.58,1.79,2.39a28.41,28.41,0,0,1,2.83,5.24Z"/><path class="cls-3" d="M562.35,79.92a14.63,14.63,0,0,1,.69-4.28c.24-.68.56-1.35.77-2a12.61,12.61,0,0,0,.41-2.12,33.68,33.68,0,0,1,.8-4.26,22.73,22.73,0,0,1,1.52-4.07l.09,0a23.77,23.77,0,0,1-.57,4.31,33.5,33.5,0,0,1-1.3,4.13,12.69,12.69,0,0,0-.64,2.07c-.14.71-.17,1.45-.27,2.16A15.05,15.05,0,0,1,562.44,80Z"/><path class="cls-3" d="M547,61.68A29.21,29.21,0,0,1,551.1,66c.59.81,1.12,1.66,1.74,2.44a22.24,22.24,0,0,0,2,2.21c1.44,1.39,2.77,2.87,4.07,4.39a43.44,43.44,0,0,1,3.5,4.86l-.07.07a43.51,43.51,0,0,1-4.24-4.24c-1.29-1.53-2.54-3.08-3.68-4.73a24.49,24.49,0,0,0-1.85-2.35c-.67-.73-1.43-1.4-2.13-2.11a28.65,28.65,0,0,1-3.59-4.79Z"/><path class="cls-3" d="M559.27,53.07a11.61,11.61,0,0,1-2.87,2.47c-.56.3-1.16.55-1.69.88a9.24,9.24,0,0,0-1.48,1.18A25.6,25.6,0,0,1,550.3,60a17.94,17.94,0,0,1-3.36,1.78l-.06-.08a17.39,17.39,0,0,1,2.8-2.57,24.69,24.69,0,0,1,3.24-2,9.13,9.13,0,0,0,1.6-1c.5-.39.93-.87,1.4-1.29A11.37,11.37,0,0,1,559.21,53Z"/><path class="cls-3" d="M532.29,48.59a16.17,16.17,0,0,1,3.36-3.05c.64-.41,1.33-.75,2-1.18a13.36,13.36,0,0,0,1.72-1.47,34.33,34.33,0,0,1,3.43-3,25,25,0,0,1,3.88-2.38l.06.08a25.62,25.62,0,0,1-3.29,3.14,35.91,35.91,0,0,1-3.75,2.56,14,14,0,0,0-1.86,1.29c-.57.49-1.08,1.06-1.63,1.58a16.72,16.72,0,0,1-3.81,2.47Z"/><path class="cls-3" d="M532.3,24.42a19.18,19.18,0,0,1,3.85,3c.55.6,1.05,1.26,1.62,1.83a15.56,15.56,0,0,0,1.88,1.56,44.88,44.88,0,0,1,3.77,3.09,30.64,30.64,0,0,1,3.27,3.64l-.07.08a29.84,29.84,0,0,1-3.92-2.93,41.49,41.49,0,0,1-3.42-3.47,14.88,14.88,0,0,0-1.73-1.73c-.62-.52-1.32-1-2-1.45a19.21,19.21,0,0,1-3.35-3.56Z"/><path class="cls-3" d="M520.5,32.48a10.24,10.24,0,0,1,2.73-2.32c.52-.28,1.1-.48,1.61-.8a8.17,8.17,0,0,0,1.4-1.1A22.92,22.92,0,0,1,529,26a15.55,15.55,0,0,1,3.21-1.61l.06.08a15.57,15.57,0,0,1-2.67,2.41,22,22,0,0,1-3.08,1.81,8.13,8.13,0,0,0-1.53.91c-.47.36-.87.83-1.32,1.22a10.22,10.22,0,0,1-3.15,1.71Z"/><path class="cls-3" d="M532.28,48.66A20.19,20.19,0,0,1,529,44.85c-.44-.72-.81-1.47-1.27-2.17a17.07,17.07,0,0,0-1.57-1.94A45,45,0,0,1,523,36.86a30.35,30.35,0,0,1-2.55-4.31l.08-.06a31.7,31.7,0,0,1,3.33,3.74,42.93,42.93,0,0,1,2.74,4.18A16.37,16.37,0,0,0,528,42.49c.52.65,1.13,1.24,1.68,1.86a20.36,20.36,0,0,1,2.65,4.25Z"/><path class="cls-3" d="M520.41,58.84A12.49,12.49,0,0,1,523.14,56c.54-.37,1.13-.69,1.65-1.09a10.65,10.65,0,0,0,1.41-1.36,27,27,0,0,1,2.8-2.76,18.51,18.51,0,0,1,3.29-2.2l.06.07a18.56,18.56,0,0,1-2.65,2.93A26.9,26.9,0,0,1,526.56,54a10.11,10.11,0,0,0-1.56,1.2c-.47.45-.87,1-1.32,1.47a12.57,12.57,0,0,1-3.21,2.29Z"/><path class="cls-3" d="M546.87,61.75a19.31,19.31,0,0,1-3.89-3c-.56-.59-1.07-1.25-1.65-1.82a14.94,14.94,0,0,0-1.9-1.55,43.94,43.94,0,0,1-3.82-3.08,29.46,29.46,0,0,1-3.32-3.64l.06-.07a29.57,29.57,0,0,1,4,2.91A43.82,43.82,0,0,1,539.8,55a15.79,15.79,0,0,0,1.75,1.72c.63.52,1.33,1,2,1.44a19.08,19.08,0,0,1,3.4,3.55Z"/><path class="cls-3" d="M532.25,67.59a12.81,12.81,0,0,1,3.52-1.82c.64-.18,1.3-.29,1.93-.5a11.2,11.2,0,0,0,1.79-.84,27.83,27.83,0,0,1,3.56-1.73,19.57,19.57,0,0,1,3.84-1l0,.09a19.53,19.53,0,0,1-3.48,1.93,27.13,27.13,0,0,1-3.76,1.24,10.85,10.85,0,0,0-1.87.64c-.6.28-1.15.66-1.74,1a12.81,12.81,0,0,1-3.79,1.14Z"/><path class="cls-3" d="M520.47,58.84a10.7,10.7,0,0,1,3.17,1.9c.46.41.86.91,1.33,1.3a8.93,8.93,0,0,0,1.55,1,24.45,24.45,0,0,1,3.11,2,17.11,17.11,0,0,1,2.67,2.58l-.06.08a17.09,17.09,0,0,1-3.25-1.8,23.52,23.52,0,0,1-2.8-2.4,9.29,9.29,0,0,0-1.41-1.18c-.51-.34-1.1-.58-1.63-.9a10.73,10.73,0,0,1-2.74-2.48Z"/><path class="cls-3" d="M512.29,44.87a13.1,13.1,0,0,1,2.36,3.31c.28.62.5,1.28.81,1.88a11,11,0,0,0,1.12,1.69,29.1,29.1,0,0,1,2.27,3.36,20.45,20.45,0,0,1,1.63,3.74l-.09.06a20.8,20.8,0,0,1-2.46-3.26A28.49,28.49,0,0,1,516.11,52a11.88,11.88,0,0,0-.93-1.81c-.37-.56-.84-1.07-1.24-1.62a13.24,13.24,0,0,1-1.74-3.68Z"/><path class="cls-3" d="M511.16,40.6a1.11,1.11,0,0,1,.64.92,4.15,4.15,0,0,0-.1.58.75.75,0,0,0,.25.48,2.24,2.24,0,0,1,.53,1,1.82,1.82,0,0,1-.19,1.15l-.09,0a1.85,1.85,0,0,1-.75-.9,2.11,2.11,0,0,1,0-1.09.82.82,0,0,0,0-.54c-.07-.16-.28-.29-.38-.45a1.11,1.11,0,0,1,.07-1.12Z"/><path class="cls-3" d="M512.29,44.71a2.1,2.1,0,0,1,0,1.58c-.12.24-.34.45-.43.69a1.65,1.65,0,0,0-.07.77,4.26,4.26,0,0,1-.11,1.56,3.31,3.31,0,0,1-.83,1.37l-.1,0a3.44,3.44,0,0,1-.11-1.61,4.29,4.29,0,0,1,.62-1.43,1.79,1.79,0,0,0,.29-.72,7.41,7.41,0,0,0-.07-.8,2.11,2.11,0,0,1,.72-1.41Z"/><path class="cls-3" d="M520.57,32.55a11.28,11.28,0,0,1-1.77,3.3c-.39.48-.87.9-1.24,1.4a10,10,0,0,0-.95,1.61,23,23,0,0,1-1.85,3.24,16.88,16.88,0,0,1-2.47,2.82l-.09-.05a17.55,17.55,0,0,1,1.67-3.36,24,24,0,0,1,2.29-2.95,9.58,9.58,0,0,0,1.13-1.49c.32-.53.53-1.14.82-1.69a11.47,11.47,0,0,1,2.37-2.89Z"/><path class="cls-3" d="M697.52,4.18a5.45,5.45,0,0,1,1.63,2,12.63,12.63,0,0,0,.44,1.22,4.38,4.38,0,0,0,.75,1,11.22,11.22,0,0,1,1.54,2.05,8.17,8.17,0,0,1,.9,2.42l-.08.06A8.06,8.06,0,0,1,701,11a11.39,11.39,0,0,1-1.1-2.31,4.23,4.23,0,0,0-.56-1.15c-.25-.35-.6-.63-.88-1a5.43,5.43,0,0,1-1-2.37Z"/><path class="cls-3" d="M694.89,0a6.16,6.16,0,0,1,1.76,1.92,5.84,5.84,0,0,1,.91,2.44,6.16,6.16,0,0,1-1.76-1.92A6.24,6.24,0,0,1,694.89,0Z"/><path class="cls-3" d="M697.67,4.31a47,47,0,0,1,13-4.31,41.56,41.56,0,0,1-6.34,2.63A42.72,42.72,0,0,1,697.67,4.31Z"/></g><g id="Snake"><path class="cls-4" d="M437.52,51.89c18.43-2.29,61.05-4.58,74-1.37,1-3.61.66-10.65.59-10.21-24,2-48.29-1.87-71.69-5l18,7.09C452.72,44.12,437.42,51.59,437.52,51.89Z"/></g></g></g></g></g></svg>