<svg xmlns="http://www.w3.org/2000/svg" viewBox="0 0 792 91.77"><defs><style>.cls-1{fill:none;}.cls-2{fill:#fff;}.cls-3{fill:#202a5d;}.cls-4{fill:#c73d96;stroke:#fff;stroke-miterlimit:10;}</style></defs><g id="Layer_2" data-name="Layer 2"><g id="Layer_1-2" data-name="Layer 1"><g id="Left-Head"><g id="Left-Head-2" data-name="Left-Head"><rect class="cls-1" y="0.01" width="792" height="91.77"/><path class="cls-2" d="M260.36,36.24c.45-6.79-4.55-10.18-10.2-12.68C244,20.84,237.46,19,231.32,16.3A18.57,18.57,0,0,1,224.67,11c-2.75-3.4-6-5.07-10-3.41-3.33,1.41-6.32,1.08-9.66.3C193.54,5.21,181.91,3.22,170,4.26c-8.06.71-15.16,3.31-20,9.66-3.08,4-7,5.7-11.71,3.65C131,14.43,119.86,7.46,117.38,0H71.43c9,34.22,29.41,58.4,68.9,65.41a19.57,19.57,0,0,1,10.41,5.87c7,7.94,16.12,10.74,26.36,9.5,10.69-1.3,21.17-4.08,31.78-6a21.91,21.91,0,0,1,8-.1c4.63.91,7.48-.31,10-4.1a17.08,17.08,0,0,1,6.23-5.67c5.63-2.77,11.68-4.79,17.42-7.38,5.28-2.39,9.64-5.69,10.09-11.4Z"/><path class="cls-3" d="M72.67,4.32a8.06,8.06,0,0,1,3.18.23c.51.15,1,.41,1.51.54a7,7,0,0,0,1.58.18,17.46,17.46,0,0,1,3.16.33,12.71,12.71,0,0,1,3,1.06l0,.1a12.62,12.62,0,0,1-3.2-.11,17.46,17.46,0,0,1-3.07-.84,6.35,6.35,0,0,0-1.54-.4c-.52-.07-1.07,0-1.6,0a8.31,8.31,0,0,1-3-.94Z"/><path class="cls-3" d="M72.66,4.37A8.19,8.19,0,0,1,74.3,1.85,8.06,8.06,0,0,1,76.67,0,7.9,7.9,0,0,1,75,2.52,8.06,8.06,0,0,1,72.66,4.37Z"/><path class="cls-3" d="M90.59.08A3.9,3.9,0,0,1,89.52,2c-.28.24-.63.42-.88.68a3.26,3.26,0,0,0-.59.9,8.23,8.23,0,0,1-1.16,1.83,6,6,0,0,1-1.73,1.36l-.08-.06a6.08,6.08,0,0,1,1-2A7.93,7.93,0,0,1,87.62,3.2a3.09,3.09,0,0,0,.77-.76c.2-.3.3-.68.48-1A3.85,3.85,0,0,1,90.51,0Z"/><path class="cls-3" d="M85.19,6.7a8.67,8.67,0,0,1-1.7,2.78c-.38.38-.84.71-1.2,1.12a6.83,6.83,0,0,0-.9,1.34,18.36,18.36,0,0,1-1.78,2.71,13.34,13.34,0,0,1-2.37,2.25l-.08-.06A13.42,13.42,0,0,1,78.76,14,19.06,19.06,0,0,1,81,11.6,7.19,7.19,0,0,0,82,10.4c.31-.45.51-1,.79-1.43a8.56,8.56,0,0,1,2.28-2.33Z"/><path class="cls-3" d="M97.49,4.14a3.74,3.74,0,0,1-1,1.91c-.25.24-.59.43-.82.69a3,3,0,0,0-.54.91,8.1,8.1,0,0,1-1,1.84,5.77,5.77,0,0,1-1.64,1.4l-.08-.06a5.81,5.81,0,0,1,.86-2,7.81,7.81,0,0,1,1.46-1.53,2.87,2.87,0,0,0,.71-.77,8.8,8.8,0,0,0,.42-1,3.74,3.74,0,0,1,1.55-1.47Z"/><path class="cls-3" d="M92.5,10.88a20.53,20.53,0,0,1-1.93,4.66c-.45.72-.95,1.4-1.36,2.14a17,17,0,0,0-1,2.3,44.12,44.12,0,0,1-2,4.61,31,31,0,0,1-2.69,4.28l-.09,0a31,31,0,0,1,1.83-4.72,45.21,45.21,0,0,1,2.49-4.38,16.92,16.92,0,0,0,1.23-2.2c.34-.76.59-1.58.9-2.36a20.59,20.59,0,0,1,2.59-4.34Z"/><path class="cls-3" d="M106.16,14.52a10.34,10.34,0,0,1-3.52-.55c-.56-.21-1.09-.52-1.65-.7a7.88,7.88,0,0,0-1.74-.34,22.51,22.51,0,0,1-3.5-.65,16.07,16.07,0,0,1-3.31-1.37l0-.1a16.11,16.11,0,0,1,3.55.43,21.53,21.53,0,0,1,3.36,1.16,9.3,9.3,0,0,0,1.69.56c.58.12,1.19.11,1.78.2a10.45,10.45,0,0,1,3.34,1.26Z"/><path class="cls-3" d="M112.2,4.7A6.82,6.82,0,0,1,111,7.34c-.31.38-.69.7-1,1.09a5.51,5.51,0,0,0-.65,1.28,14.81,14.81,0,0,1-1.27,2.59,10.66,10.66,0,0,1-1.91,2.19l-.09-.05a10.69,10.69,0,0,1,1.09-2.7,14.07,14.07,0,0,1,1.71-2.31,5,5,0,0,0,.84-1.17c.23-.42.34-.91.54-1.35a6.72,6.72,0,0,1,1.8-2.26Z"/><path class="cls-3" d="M99.07,0a4.74,4.74,0,0,1-.41,2.21,4.53,4.53,0,0,1-1.32,1.82,4.6,4.6,0,0,1,.4-2.21A4.66,4.66,0,0,1,99.07,0Z"/><path class="cls-3" d="M97.34,4.06a13.66,13.66,0,0,1-3.64-1.6A14.52,14.52,0,0,1,90.58,0a13.52,13.52,0,0,1,3.64,1.6A14.05,14.05,0,0,1,97.34,4.06Z"/><path class="cls-3" d="M92,10.86a14.49,14.49,0,0,1-3.72-1.65,14.65,14.65,0,0,1-3.2-2.5,14.49,14.49,0,0,1,3.72,1.65A14.65,14.65,0,0,1,92,10.86Z"/><path class="cls-3" d="M112.15,4.73a11.13,11.13,0,0,1-3.72.21c-.61-.09-1.22-.27-1.84-.33a9.55,9.55,0,0,0-1.85,0,23.2,23.2,0,0,1-3.72.11,16.81,16.81,0,0,1-3.68-.64V4a17.45,17.45,0,0,1,3.72-.33,24.37,24.37,0,0,1,3.7.42,8.86,8.86,0,0,0,1.85.18c.61,0,1.24-.14,1.86-.17a10.88,10.88,0,0,1,3.69.52Z"/><path class="cls-3" d="M120.42,5.22a3.63,3.63,0,0,1-2.09.24c-.34-.08-.67-.26-1-.32a3.32,3.32,0,0,0-1,.05,7.32,7.32,0,0,1-2.08.14,5.74,5.74,0,0,1-2-.6v-.1a5.55,5.55,0,0,1,2.09-.36,7.41,7.41,0,0,1,2.06.38,2.8,2.8,0,0,0,1,.17c.35,0,.7-.15,1-.19a3.56,3.56,0,0,1,2.05.49Z"/><path class="cls-3" d="M112.16,4.68a6.12,6.12,0,0,1,.64-2.55A6.11,6.11,0,0,1,114.35,0a6.16,6.16,0,0,1-.65,2.55A6.4,6.4,0,0,1,112.16,4.68Z"/><path class="cls-3" d="M106.18,14.42a16,16,0,0,1,4.53.1c.74.14,1.47.37,2.22.48a14,14,0,0,0,2.25.12,37.79,37.79,0,0,1,4.52.2,25.67,25.67,0,0,1,4.44.95v.1a25.51,25.51,0,0,1-4.54,0,37.32,37.32,0,0,1-4.46-.72,13.21,13.21,0,0,0-2.24-.35c-.75,0-1.51,0-2.27,0a16.32,16.32,0,0,1-4.45-.82Z"/><path class="cls-3" d="M104.08,34.29a19.81,19.81,0,0,1,.15-5c.15-.82.38-1.63.5-2.45a16,16,0,0,0,.15-2.49,43.54,43.54,0,0,1,.25-5,31,31,0,0,1,1-4.91h.1a31,31,0,0,1,0,5,41.39,41.39,0,0,1-.77,4.93,16,16,0,0,0-.36,2.47c0,.83,0,1.67,0,2.5a19.86,19.86,0,0,1-.87,4.93Z"/><path class="cls-3" d="M83.43,28.8a22.85,22.85,0,0,1,5.27,1c.84.3,1.67.66,2.52.93a19.75,19.75,0,0,0,2.62.57,50.76,50.76,0,0,1,5.24,1.11,36,36,0,0,1,5.06,1.83l0,.1a34.93,34.93,0,0,1-5.3-.9,49.55,49.55,0,0,1-5.11-1.61,19.39,19.39,0,0,0-2.56-.79c-.87-.19-1.77-.28-2.65-.43A22.79,22.79,0,0,1,83.4,28.9Z"/><path class="cls-3" d="M109,54.25a20.61,20.61,0,0,1-1.58-4.9c-.14-.85-.2-1.71-.37-2.55a17.87,17.87,0,0,0-.72-2.47,47.15,47.15,0,0,1-1.48-4.92,33.17,33.17,0,0,1-.75-5.1l.1,0a33,33,0,0,1,1.69,4.87,44.83,44.83,0,0,1,1,5,17.83,17.83,0,0,0,.5,2.52c.24.82.59,1.62.86,2.43a20.55,20.55,0,0,1,.87,5.07Z"/><path class="cls-3" d="M124.05,34.35a20.41,20.41,0,0,1-5,.37c-.83-.08-1.66-.22-2.49-.26a17.3,17.3,0,0,0-2.49.11,43.72,43.72,0,0,1-5,.26,30,30,0,0,1-5-.48v-.1a30,30,0,0,1,5-.48,43.72,43.72,0,0,1,5,.26,17.3,17.3,0,0,0,2.49.11c.83,0,1.66-.18,2.49-.26a20.41,20.41,0,0,1,5,.37Z"/><path class="cls-3" d="M124.18,16.32a16.3,16.3,0,0,1,.35,4.5c-.08.74-.23,1.49-.27,2.24a14.13,14.13,0,0,0,.1,2.25,33.93,33.93,0,0,1,.24,4.5,25.4,25.4,0,0,1-.5,4.49H124a25.46,25.46,0,0,1-.47-4.5,37.59,37.59,0,0,1,.28-4.49,13.07,13.07,0,0,0,.13-2.25c0-.75-.18-1.5-.25-2.25a16.23,16.23,0,0,1,.39-4.49Z"/><path class="cls-3" d="M120.47,5.15a7.31,7.31,0,0,1,1.28,2.74c.09.49.09,1,.22,1.5a6,6,0,0,0,.57,1.39,15.23,15.23,0,0,1,1.17,2.77,11.4,11.4,0,0,1,.47,3l-.1,0a11.49,11.49,0,0,1-1.38-2.7A15.22,15.22,0,0,1,122,11a6,6,0,0,0-.36-1.46c-.18-.47-.49-.89-.7-1.35a7.14,7.14,0,0,1-.58-3Z"/><path class="cls-3" d="M138.23,17.62a10.15,10.15,0,0,1-3.56.05c-.58-.11-1.16-.33-1.74-.41a8,8,0,0,0-1.77,0,22.1,22.1,0,0,1-3.55-.06,15.77,15.77,0,0,1-3.48-.79v-.1a15.24,15.24,0,0,1,3.56-.17,22.13,22.13,0,0,1,3.51.57,8.61,8.61,0,0,0,1.75.27c.59,0,1.19-.09,1.78-.1a10.21,10.21,0,0,1,3.5.68Z"/><path class="cls-3" d="M141.07,25.33A3.67,3.67,0,0,1,140,23.52c-.07-.34,0-.72-.13-1.06a2.84,2.84,0,0,0-.46-.92,7.8,7.8,0,0,1-1-1.85,5.81,5.81,0,0,1-.27-2.1l.1,0a5.68,5.68,0,0,1,1.17,1.77,7.18,7.18,0,0,1,.48,2,2.84,2.84,0,0,0,.26,1c.15.31.42.58.6.88a3.65,3.65,0,0,1,.38,2.06Z"/><path class="cls-3" d="M124,34.26a18.35,18.35,0,0,1,4.1-2.58c.75-.31,1.52-.55,2.25-.9a15.5,15.5,0,0,0,2.08-1.22,42.49,42.49,0,0,1,4.15-2.48,29,29,0,0,1,4.5-1.82l0,.09a28.87,28.87,0,0,1-4,2.68,42.58,42.58,0,0,1-4.39,2,15,15,0,0,0-2.19,1c-.69.41-1.33.91-2,1.35a18.47,18.47,0,0,1-4.44,1.92Z"/><path class="cls-3" d="M132.54,52.54a20.13,20.13,0,0,1-2.47-4.4c-.29-.79-.51-1.61-.84-2.39a18.17,18.17,0,0,0-1.16-2.23,43,43,0,0,1-2.37-4.44,31.31,31.31,0,0,1-1.7-4.76l.09,0a30.85,30.85,0,0,1,2.57,4.35,42.91,42.91,0,0,1,1.9,4.66,17.6,17.6,0,0,0,1,2.33c.39.74.87,1.44,1.3,2.16a20.47,20.47,0,0,1,1.8,4.71Z"/><path class="cls-3" d="M109,54.18a28.48,28.48,0,0,1,5.86-.79c1,0,2,.07,3,0a24.1,24.1,0,0,0,2.93-.33c2-.34,3.91-.53,5.87-.69a42,42,0,0,1,5.93.06v.1a45.14,45.14,0,0,1-5.86.91c-2,.13-3.93.22-5.91.17a22.38,22.38,0,0,0-2.95.1c-1,.11-2,.33-2.93.47a27.78,27.78,0,0,1-5.91.06Z"/><path class="cls-3" d="M148.07,68.93a25.25,25.25,0,0,1-4.15-3.84c-.59-.73-1.14-1.52-1.76-2.22a21,21,0,0,0-2-2A53.54,53.54,0,0,1,136.08,57a38.75,38.75,0,0,1-3.53-4.43l.07-.07a40,40,0,0,1,4.23,3.76c1.29,1.38,2.54,2.78,3.69,4.28a20.9,20.9,0,0,0,1.86,2.12c.67.66,1.43,1.24,2.12,1.88a25.2,25.2,0,0,1,3.62,4.34Z"/><path class="cls-3" d="M151.06,45.93a19.33,19.33,0,0,1-4.49,2c-.8.21-1.62.35-2.4.59a16,16,0,0,0-2.27.94,42.39,42.39,0,0,1-4.52,1.9,29.85,29.85,0,0,1-4.78,1.2l0-.09A29.16,29.16,0,0,1,137,50.36a41.77,41.77,0,0,1,4.7-1.42,15.46,15.46,0,0,0,2.34-.72c.76-.31,1.48-.73,2.22-1.07A19.71,19.71,0,0,1,151,45.84Z"/><path class="cls-3" d="M141.16,25.29a25.25,25.25,0,0,1,2.81,5c.35.89.64,1.81,1,2.68a19.14,19.14,0,0,0,1.34,2.53c1,1.63,1.88,3.32,2.71,5a39.6,39.6,0,0,1,2,5.35l-.09,0A39.71,39.71,0,0,1,148.08,41c-.82-1.72-1.6-3.45-2.25-5.25a20.34,20.34,0,0,0-1.14-2.62c-.44-.85-1-1.64-1.47-2.47a26.64,26.64,0,0,1-2.15-5.3Z"/><path class="cls-3" d="M154.32,9.66a21.78,21.78,0,0,1-3,4.15c-.61.61-1.27,1.17-1.84,1.8a17.09,17.09,0,0,0-1.56,2,44.26,44.26,0,0,1-3.09,4.09,32,32,0,0,1-3.66,3.61l-.08-.06A33.88,33.88,0,0,1,144,21a45.7,45.7,0,0,1,3.49-3.75,18.2,18.2,0,0,0,1.73-1.89c.52-.68,1-1.42,1.45-2.12a21.11,21.11,0,0,1,3.57-3.69Z"/><path class="cls-3" d="M162.32,30.92A26.05,26.05,0,0,1,160,25.73c-.27-.91-.47-1.85-.78-2.75a20.78,20.78,0,0,0-1.11-2.62c-.86-1.7-1.58-3.46-2.27-5.23a40.62,40.62,0,0,1-1.57-5.49l.1,0a40.4,40.4,0,0,1,2.47,5.14c.67,1.78,1.29,3.57,1.78,5.41a20.89,20.89,0,0,0,.91,2.7c.37.88.84,1.71,1.25,2.57a26.89,26.89,0,0,1,1.68,5.45Z"/><path class="cls-3" d="M151,45.85a17.6,17.6,0,0,1,2.54-4c.53-.58,1.12-1.12,1.62-1.72a16.22,16.22,0,0,0,1.33-1.94,38.07,38.07,0,0,1,2.62-3.91,27.54,27.54,0,0,1,3.22-3.45l.08.06A27.5,27.5,0,0,1,160,35a38.22,38.22,0,0,1-3,3.59,15.07,15.07,0,0,0-1.5,1.8c-.44.65-.8,1.36-1.22,2a17.63,17.63,0,0,1-3.12,3.52Z"/><path class="cls-3" d="M158.28,57.68a9.7,9.7,0,0,1-2.13-2.75c-.25-.52-.42-1.1-.7-1.61a8,8,0,0,0-1-1.41,19.83,19.83,0,0,1-2-2.8,14.82,14.82,0,0,1-1.41-3.2l.08,0a14.56,14.56,0,0,1,2.23,2.69,19.45,19.45,0,0,1,1.6,3.07,7.75,7.75,0,0,0,.82,1.53c.33.48.77.88,1.13,1.34a9.88,9.88,0,0,1,1.51,3.13Z"/><path class="cls-3" d="M148.07,68.86a11.48,11.48,0,0,1,2.28-3c.48-.42,1-.8,1.47-1.24A9.52,9.52,0,0,0,153,63.09a26.29,26.29,0,0,1,2.36-3,18.4,18.4,0,0,1,2.92-2.48l.07.06a18,18,0,0,1-2.2,3.14,24.45,24.45,0,0,1-2.74,2.64,9,9,0,0,0-1.36,1.33c-.4.49-.72,1.06-1.09,1.58a11.76,11.76,0,0,1-2.83,2.56Z"/><path class="cls-3" d="M166.9,82.71a34.25,34.25,0,0,1-2.5-6.14c-.3-1.07-.52-2.16-.84-3.22a28.88,28.88,0,0,0-1.18-3.09c-.9-2-1.68-4.09-2.4-6.18a53.48,53.48,0,0,1-1.7-6.41l.09,0A54.44,54.44,0,0,1,161,63.74c.72,2.08,1.37,4.19,1.91,6.34a29,29,0,0,0,1,3.17c.39,1,.89,2,1.31,3A34.86,34.86,0,0,1,167,82.67Z"/><path class="cls-3" d="M169.09,48.28a10.4,10.4,0,0,1-2.44,2.63c-.49.35-1,.62-1.51,1a8.82,8.82,0,0,0-1.27,1.25,21.6,21.6,0,0,1-2.51,2.55,16.11,16.11,0,0,1-3,2l-.07-.08a15.78,15.78,0,0,1,2.37-2.71,22.46,22.46,0,0,1,2.85-2.16,8.37,8.37,0,0,0,1.42-1.09c.42-.41.76-.93,1.17-1.37A10.09,10.09,0,0,1,169,48.21Z"/><path class="cls-3" d="M162.42,30.88a17,17,0,0,1,2,4.21c.21.74.36,1.52.6,2.26a14.26,14.26,0,0,0,.94,2.12,38.37,38.37,0,0,1,1.91,4.25,27.28,27.28,0,0,1,1.23,4.51l-.1,0a27.15,27.15,0,0,1-2.12-4.16,37.5,37.5,0,0,1-1.43-4.43,15.46,15.46,0,0,0-.73-2.21c-.32-.71-.73-1.38-1.08-2.07a17.48,17.48,0,0,1-1.33-4.47Z"/><path class="cls-3" d="M170,4.28A37.87,37.87,0,0,1,168.47,11c-.39,1.09-.84,2.16-1.19,3.26a31.76,31.76,0,0,0-.85,3.36c-.45,2.27-1,4.51-1.65,6.73a59.78,59.78,0,0,1-2.36,6.52l-.1,0a60,60,0,0,1,1.44-6.8c.63-2.22,1.33-4.42,2.15-6.58a32.41,32.41,0,0,0,1.05-3.3c.29-1.12.46-2.27.71-3.4a38.5,38.5,0,0,1,2.25-6.56Z"/><path class="cls-3" d="M181.61,33.66a49.62,49.62,0,0,1-3.26-7.21c-.42-1.25-.77-2.53-1.23-3.76s-1-2.44-1.56-3.63c-1.15-2.38-2.19-4.81-3.16-7.25a78,78,0,0,1-2.48-7.53l.1,0a79.14,79.14,0,0,1,3.37,7.17c1,2.45,1.88,4.92,2.68,7.44a37.58,37.58,0,0,0,1.36,3.72c.52,1.21,1.14,2.38,1.69,3.58a48.58,48.58,0,0,1,2.58,7.48Z"/><path class="cls-3" d="M198.62,6.43a50,50,0,0,1-3.92,7c-.76,1.09-1.59,2.15-2.33,3.27s-1.39,2.28-2,3.46c-1.25,2.37-2.6,4.68-4,7a80,80,0,0,1-4.64,6.55l-.09-.05c1.15-2.44,2.46-4.77,3.83-7.07s2.88-4.5,4.45-6.67c.78-1.09,1.53-2.19,2.21-3.34s1.25-2.37,1.9-3.54a51.06,51.06,0,0,1,4.54-6.62Z"/><path class="cls-3" d="M195.2,48.44A19.93,19.93,0,0,1,191.54,45c-.51-.66-1-1.38-1.51-2a17.5,17.5,0,0,0-1.78-1.77,44.07,44.07,0,0,1-3.59-3.51,31.63,31.63,0,0,1-3-4l.07-.07A31,31,0,0,1,185.45,37a44,44,0,0,1,3.2,3.86,15.67,15.67,0,0,0,1.62,1.92c.59.59,1.26,1.11,1.88,1.68a19.74,19.74,0,0,1,3.13,3.94Z"/><path class="cls-3" d="M169,48.21a18.72,18.72,0,0,1,2.87-3.89c.58-.56,1.22-1.07,1.77-1.65a17.07,17.07,0,0,0,1.49-1.9A40.85,40.85,0,0,1,178.1,37a29.31,29.31,0,0,1,3.52-3.34l.08.07a29.33,29.33,0,0,1-2.79,4,37.84,37.84,0,0,1-3.34,3.48,14.49,14.49,0,0,0-1.66,1.76c-.5.63-.92,1.33-1.39,2a18.41,18.41,0,0,1-3.42,3.41Z"/><path class="cls-3" d="M179.62,58.83a11.44,11.44,0,0,1-2.91-2.38c-.39-.48-.72-1-1.14-1.5a9.86,9.86,0,0,0-1.41-1.24,23.57,23.57,0,0,1-2.83-2.45,17.43,17.43,0,0,1-2.31-3l.07-.07a17.4,17.4,0,0,1,3,2.29,24.57,24.57,0,0,1,2.47,2.82,8.8,8.8,0,0,0,1.25,1.4c.46.42,1,.74,1.5,1.14a11.06,11.06,0,0,1,2.39,2.9Z"/><path class="cls-3" d="M166.9,82.67a36.6,36.6,0,0,1,2.86-6.15c.59-1,1.25-1.89,1.81-2.87a30.54,30.54,0,0,0,1.49-3c.89-2.08,1.89-4.1,2.95-6.09a56.37,56.37,0,0,1,3.6-5.75l.09,0A59.44,59.44,0,0,1,177,65c-1.06,2-2.18,4-3.41,5.85a32.73,32.73,0,0,0-1.69,2.93c-.49,1-.89,2.08-1.36,3.11a36.49,36.49,0,0,1-3.5,5.8Z"/><path class="cls-3" d="M192.29,78.18a26.53,26.53,0,0,1-3.48-4.64c-.46-.84-.87-1.73-1.37-2.56a20.24,20.24,0,0,0-1.68-2.36,57.59,57.59,0,0,1-3.38-4.7,42.43,42.43,0,0,1-2.77-5.1l.09-.06a41.13,41.13,0,0,1,3.57,4.58c1,1.62,2.06,3.26,2.95,5a22,22,0,0,0,1.49,2.48c.56.79,1.21,1.52,1.8,2.29a26.86,26.86,0,0,1,2.86,5Z"/><path class="cls-3" d="M195.27,48.45a17.67,17.67,0,0,1-3.69,2.9c-.69.37-1.42.68-2.09,1.09a14.13,14.13,0,0,0-1.89,1.39,39,39,0,0,1-3.75,2.81,26.65,26.65,0,0,1-4.17,2.19l-.05-.08a26.53,26.53,0,0,1,3.63-3,37.87,37.87,0,0,1,4-2.38,15.69,15.69,0,0,0,2-1.2c.63-.47,1.19-1,1.8-1.51a17.68,17.68,0,0,1,4.1-2.29Z"/><path class="cls-3" d="M205.68,34.33a15.39,15.39,0,0,1-2.31,3.74c-.49.55-1,1-1.5,1.62a12.6,12.6,0,0,0-1.21,1.83,34.59,34.59,0,0,1-2.39,3.68,24,24,0,0,1-3,3.24l-.08-.06a24,24,0,0,1,2.21-3.81,32.28,32.28,0,0,1,2.81-3.38,12.58,12.58,0,0,0,1.39-1.7c.4-.6.72-1.28,1.09-1.91a15.43,15.43,0,0,1,2.9-3.31Z"/><path class="cls-3" d="M198.63,6.39a40.91,40.91,0,0,1,2.12,6.89c.22,1.18.38,2.38.63,3.55s.62,2.32,1,3.46c.78,2.27,1.43,4.58,2,6.91a64.59,64.59,0,0,1,1.3,7.09l-.1,0a62.19,62.19,0,0,1-2.23-6.85c-.59-2.33-1.11-4.67-1.52-7a34.84,34.84,0,0,0-.77-3.51c-.33-1.16-.76-2.28-1.13-3.43a41.83,41.83,0,0,1-1.41-7.06Z"/><path class="cls-3" d="M214.76,7.59a40,40,0,0,1-1.93,6.8c-.44,1.09-1,2.15-1.37,3.26s-.73,2.23-1,3.37c-.57,2.29-1.27,4.54-2,6.77a61.73,61.73,0,0,1-2.73,6.53l-.09,0a62.92,62.92,0,0,1,1.81-6.83c.76-2.23,1.58-4.44,2.51-6.6a33,33,0,0,0,1.24-3.31c.35-1.12.59-2.28.9-3.42a39.77,39.77,0,0,1,2.61-6.57Z"/><path class="cls-3" d="M224.77,33.24A37.81,37.81,0,0,1,221.9,27c-.35-1.09-.64-2.21-1-3.3a32.75,32.75,0,0,0-1.37-3.16c-1-2.07-1.93-4.18-2.77-6.32a60,60,0,0,1-2.08-6.59l.09,0a59.37,59.37,0,0,1,3,6.24c.84,2.14,1.62,4.3,2.29,6.51a30.43,30.43,0,0,0,1.16,3.24c.45,1.06,1,2.08,1.5,3.12a37.85,37.85,0,0,1,2.18,6.55Z"/><path class="cls-3" d="M212.19,48.63a19.92,19.92,0,0,1,2.87-4.09c.58-.6,1.21-1.15,1.77-1.77a16.15,16.15,0,0,0,1.48-2,45.11,45.11,0,0,1,2.95-4,30.33,30.33,0,0,1,3.52-3.56l.08.07a31.06,31.06,0,0,1-2.78,4.16,43.23,43.23,0,0,1-3.34,3.7A15.25,15.25,0,0,0,217.08,43c-.5.67-.91,1.41-1.38,2.09a19.63,19.63,0,0,1-3.43,3.63Z"/><path class="cls-3" d="M205.68,34.28a12.35,12.35,0,0,1,2,3.44c.21.62.36,1.28.6,1.9a11.26,11.26,0,0,0,.92,1.75,27.21,27.21,0,0,1,1.89,3.48,20,20,0,0,1,1.21,3.79l-.09,0a19.22,19.22,0,0,1-2.09-3.39,26.61,26.61,0,0,1-1.41-3.7,11.19,11.19,0,0,0-.73-1.84c-.31-.58-.71-1.12-1.05-1.69a12.61,12.61,0,0,1-1.32-3.74Z"/><path class="cls-3" d="M204.85,58.76A7.91,7.91,0,0,1,206.39,56c.35-.38.79-.71,1.12-1.11a6.54,6.54,0,0,0,.83-1.34A16.9,16.9,0,0,1,210,50.88a12.49,12.49,0,0,1,2.23-2.25l.08.06a12.49,12.49,0,0,1-1.44,2.82,17.77,17.77,0,0,1-2.05,2.38,6.43,6.43,0,0,0-1,1.2c-.28.44-.45.95-.71,1.41a8,8,0,0,1-2.13,2.32Z"/><path class="cls-3" d="M195.28,48.37A10.45,10.45,0,0,1,198,50.72c.35.48.64,1,1,1.47a8.22,8.22,0,0,0,1.28,1.22,22.2,22.2,0,0,1,2.61,2.42,15.68,15.68,0,0,1,2,2.93l-.07.06a15.62,15.62,0,0,1-2.77-2.26,22.08,22.08,0,0,1-2.22-2.77,7.86,7.86,0,0,0-1.12-1.38c-.42-.41-1-.73-1.39-1.12a10.49,10.49,0,0,1-2.15-2.85Z"/><path class="cls-3" d="M192.29,78.13a26.73,26.73,0,0,1,2.83-5c.58-.77,1.23-1.5,1.78-2.28a21.49,21.49,0,0,0,1.48-2.49c.88-1.72,1.88-3.36,2.92-5a41.79,41.79,0,0,1,3.54-4.58l.09.06a39.61,39.61,0,0,1-2.74,5.1,57.23,57.23,0,0,1-3.35,4.7A22.85,22.85,0,0,0,197.17,71c-.49.83-.89,1.72-1.35,2.56a25.87,25.87,0,0,1-3.45,4.64Z"/><path class="cls-3" d="M208.83,74.79a14,14,0,0,1-1.35-3.91c-.1-.68-.12-1.38-.25-2.06a11.5,11.5,0,0,0-.61-2,28.93,28.93,0,0,1-1.25-3.93,20.93,20.93,0,0,1-.53-4.12l.09,0a20.75,20.75,0,0,1,1.47,3.88,29,29,0,0,1,.75,4.06,11.45,11.45,0,0,0,.39,2c.2.66.51,1.29.75,1.94a13.6,13.6,0,0,1,.64,4.08Z"/><path class="cls-3" d="M224.6,57.38A26.75,26.75,0,0,1,221,62c-.7.68-1.46,1.31-2.15,2a22.66,22.66,0,0,0-1.87,2.26c-1.16,1.58-2.43,3.07-3.73,4.53a43,43,0,0,1-4.28,4l-.07-.07a41.79,41.79,0,0,1,3.56-4.68c1.31-1.44,2.66-2.86,4.11-4.18a22.44,22.44,0,0,0,2-2.1c.63-.75,1.18-1.58,1.78-2.35a26.72,26.72,0,0,1,4.19-4.11Z"/><path class="cls-3" d="M212.26,48.62a11.47,11.47,0,0,1,3.29,1.87c.48.42.91.9,1.4,1.3a9.39,9.39,0,0,0,1.61,1,24.58,24.58,0,0,1,3.23,2,17.87,17.87,0,0,1,2.8,2.57l-.05.08a18.35,18.35,0,0,1-3.37-1.78,24.58,24.58,0,0,1-2.93-2.38,9.35,9.35,0,0,0-1.48-1.18c-.53-.33-1.13-.57-1.68-.88a11.28,11.28,0,0,1-2.88-2.47Z"/><path class="cls-3" d="M239.12,44.3a16.44,16.44,0,0,1-3.8-2.47c-.56-.52-1.07-1.09-1.64-1.58A14,14,0,0,0,231.82,39a35.7,35.7,0,0,1-3.74-2.55,25.73,25.73,0,0,1-3.29-3.15l.06-.08a25.52,25.52,0,0,1,3.88,2.38,37,37,0,0,1,3.42,3A14.16,14.16,0,0,0,233.88,40c.62.43,1.3.78,1.94,1.18a16.46,16.46,0,0,1,3.36,3Z"/><path class="cls-3" d="M239.24,19.52a20,20,0,0,1-3.34,3.7c-.65.52-1.35,1-2,1.53a17.24,17.24,0,0,0-1.72,1.8,41.81,41.81,0,0,1-3.42,3.62,30.38,30.38,0,0,1-3.93,3.09l-.07-.07a30.48,30.48,0,0,1,3.27-3.79,43.53,43.53,0,0,1,3.77-3.25,17.16,17.16,0,0,0,1.88-1.63c.57-.6,1.07-1.28,1.62-1.9a19.7,19.7,0,0,1,3.85-3.18Z"/><path class="cls-3" d="M250.92,28.2a10.81,10.81,0,0,1-3.16-1.88c-.45-.41-.84-.9-1.31-1.29a9.18,9.18,0,0,0-1.54-1,23,23,0,0,1-3.09-2,16.37,16.37,0,0,1-2.64-2.56l0-.08a16.32,16.32,0,0,1,3.23,1.78,23.16,23.16,0,0,1,2.78,2.38,9.15,9.15,0,0,0,1.4,1.17c.51.34,1.09.57,1.62.88A11,11,0,0,1,251,28.12Z"/><path class="cls-3" d="M239.11,44.23A19.67,19.67,0,0,1,241.77,40c.55-.63,1.15-1.22,1.68-1.87a16.19,16.19,0,0,0,1.38-2.07,41.75,41.75,0,0,1,2.74-4.18,30.27,30.27,0,0,1,3.34-3.74l.08.06a31.57,31.57,0,0,1-2.56,4.31,43,43,0,0,1-3.16,3.87,16.26,16.26,0,0,0-1.56,2c-.47.69-.84,1.45-1.27,2.16a19.94,19.94,0,0,1-3.25,3.81Z"/><path class="cls-3" d="M251,54.55a12.26,12.26,0,0,1-3.21-2.29c-.45-.48-.85-1-1.32-1.47a10,10,0,0,0-1.55-1.2,26.27,26.27,0,0,1-3.14-2.36,19,19,0,0,1-2.66-2.93l.07-.08a20,20,0,0,1,3.28,2.2,26,26,0,0,1,2.8,2.76,10.81,10.81,0,0,0,1.42,1.37c.51.39,1.1.71,1.65,1.08a12.55,12.55,0,0,1,2.73,2.85Z"/><path class="cls-3" d="M224.53,57.31a19.69,19.69,0,0,1,3.4-3.54c.66-.49,1.36-.93,2-1.45a16.71,16.71,0,0,0,1.75-1.72,40.46,40.46,0,0,1,3.47-3.46,29.63,29.63,0,0,1,4-2.92l.07.08a30.25,30.25,0,0,1-3.33,3.63A42.15,42.15,0,0,1,232,51a17.6,17.6,0,0,0-1.9,1.55c-.58.57-1.09,1.23-1.65,1.83a19.39,19.39,0,0,1-3.89,3Z"/><path class="cls-3" d="M239.19,63.32a12.58,12.58,0,0,1-3.8-1.14c-.58-.31-1.14-.7-1.74-1a9.79,9.79,0,0,0-1.87-.63A28.39,28.39,0,0,1,228,59.33a20.1,20.1,0,0,1-3.48-1.93l0-.1a19.18,19.18,0,0,1,3.85,1A27.72,27.72,0,0,1,232,60.06a10.06,10.06,0,0,0,1.79.84c.62.21,1.28.33,1.92.51a12.54,12.54,0,0,1,3.52,1.82Z"/><path class="cls-3" d="M251.06,54.55A10.92,10.92,0,0,1,248.33,57c-.53.31-1.12.55-1.63.89a8.9,8.9,0,0,0-1.42,1.18,22.75,22.75,0,0,1-2.8,2.4,16.28,16.28,0,0,1-3.25,1.8l0-.08a16.61,16.61,0,0,1,2.67-2.57,22.22,22.22,0,0,1,3.11-2,9.24,9.24,0,0,0,1.54-1c.48-.39.87-.89,1.33-1.3a11.06,11.06,0,0,1,3.18-1.9Z"/><path class="cls-3" d="M259.27,40.56a13.49,13.49,0,0,1-1.73,3.68c-.41.54-.87,1-1.25,1.62a10.52,10.52,0,0,0-.92,1.8,28,28,0,0,1-1.83,3.63,21.2,21.2,0,0,1-2.46,3.25l-.09,0a20.54,20.54,0,0,1,1.63-3.74,30.11,30.11,0,0,1,2.27-3.37A10.31,10.31,0,0,0,256,45.69c.31-.6.53-1.26.81-1.87a13.4,13.4,0,0,1,2.36-3.32Z"/><path class="cls-3" d="M260.41,36.26a1.16,1.16,0,0,1,.07,1.12c-.11.15-.31.28-.39.44a.82.82,0,0,0,0,.54,2.21,2.21,0,0,1,0,1.09,1.85,1.85,0,0,1-.75.9l-.09,0a1.8,1.8,0,0,1-.18-1.15,2,2,0,0,1,.53-1,.83.83,0,0,0,.25-.49,4.08,4.08,0,0,0-.11-.57,1.12,1.12,0,0,1,.64-.93Z"/><path class="cls-3" d="M259.28,40.32a2.09,2.09,0,0,1,.71,1.41,7.36,7.36,0,0,0-.06.81,1.59,1.59,0,0,0,.29.72,4.38,4.38,0,0,1,.61,1.43,3.4,3.4,0,0,1-.11,1.6l-.1,0a3.38,3.38,0,0,1-.83-1.38,4.45,4.45,0,0,1-.11-1.55,1.57,1.57,0,0,0-.07-.78,7,7,0,0,0-.43-.68,2.1,2.1,0,0,1,0-1.58Z"/><path class="cls-3" d="M251,28.13A11.09,11.09,0,0,1,253.36,31c.3.55.51,1.15.83,1.69a9.92,9.92,0,0,0,1.12,1.48,23.08,23.08,0,0,1,2.29,3,17.26,17.26,0,0,1,1.67,3.36l-.09.06a17.41,17.41,0,0,1-2.47-2.83,23.42,23.42,0,0,1-1.85-3.24,9.46,9.46,0,0,0-.94-1.6c-.37-.5-.85-.93-1.25-1.41a11.13,11.13,0,0,1-1.76-3.3Z"/></g><g id="Snake"><path class="cls-4" d="M334.52,47.52c-18.43-2.28-61-4.58-74-1.37-1-3.61-.65-10.65-.58-10.21,24,2.06,48.29-1.87,71.69-5l-18,7.09C319.31,39.76,334.62,47.22,334.52,47.52Z"/></g></g></g></g></svg>