<svg xmlns="http://www.w3.org/2000/svg" viewBox="0 0 792 81.95"><defs><style>.cls-1{fill:none;}.cls-2{fill:#fff;}.cls-3{fill:#202a5d;}</style></defs><g id="Layer_2" data-name="Layer 2"><g id="Layer_1-2" data-name="Layer 1"><g id="Right-Tail"><rect class="cls-1" width="792" height="81.95"/><path class="cls-2" d="M709.7,82C731.71,32.39,706.84,0,706.84,0S696.72,32.6,681,53.79A303.69,303.69,0,0,1,657.27,82Z"/><g id="Right-Tail-2" data-name="Right-Tail"><path class="cls-3" d="M701.15,16.51a9.74,9.74,0,0,1,2-2.82c.43-.39.93-.71,1.34-1.12a7.87,7.87,0,0,0,1.06-1.36,20.92,20.92,0,0,1,2.1-2.74,14.74,14.74,0,0,1,2.65-2.25l.08.06a14.93,14.93,0,0,1-1.93,2.9,21.75,21.75,0,0,1-2.49,2.4,7.83,7.83,0,0,0-1.23,1.21c-.36.45-.62,1-1,1.46a9.5,9.5,0,0,1-2.56,2.32Z"/><path class="cls-3" d="M714.19,16.48a9.92,9.92,0,0,1-2.73-2.24c-.37-.46-.67-1-1.06-1.43a8.24,8.24,0,0,0-1.32-1.17,21,21,0,0,1-2.65-2.32,15,15,0,0,1-2.13-2.84l.07-.07a15.41,15.41,0,0,1,2.81,2.16,20.91,20.91,0,0,1,2.29,2.68,8.2,8.2,0,0,0,1.16,1.33c.44.4,1,.7,1.42,1.08a10.06,10.06,0,0,1,2.21,2.75Z"/><path class="cls-3" d="M696.1,26.56a21.57,21.57,0,0,1,4.34-2.86c.79-.36,1.62-.65,2.39-1.05A17.24,17.24,0,0,0,705,21.29a49.18,49.18,0,0,1,4.4-2.77,33.26,33.26,0,0,1,4.76-2.11l0,.08a32.74,32.74,0,0,1-4.29,3,48,48,0,0,1-4.65,2.32A16.8,16.8,0,0,0,703,22.94c-.74.45-1.42,1-2.14,1.49a22,22,0,0,1-4.7,2.22Z"/><path class="cls-3" d="M711.08,37.66a5,5,0,0,1-1.73-1.77c-.19-.37-.3-.79-.51-1.14a4.15,4.15,0,0,0-.81-.92A10.49,10.49,0,0,1,706.39,32a7.59,7.59,0,0,1-1-2.27l.08-.06a8,8,0,0,1,1.82,1.7,10.27,10.27,0,0,1,1.23,2.14,3.83,3.83,0,0,0,.62,1.05c.27.31.64.55.92.84a4.94,4.94,0,0,1,1.14,2.2Z"/><path class="cls-3" d="M705.7,30.1a5.36,5.36,0,0,1-2.46-.6c-.36-.22-.69-.53-1.06-.71a4.59,4.59,0,0,0-1.21-.37,11,11,0,0,1-2.42-.7,7.9,7.9,0,0,1-2.14-1.4l0-.09a8.23,8.23,0,0,1,2.5.5,10.83,10.83,0,0,1,2.23,1.18,4.12,4.12,0,0,0,1.12.58c.4.13.84.13,1.26.23A5.2,5.2,0,0,1,705.74,30Z"/><path class="cls-3" d="M701.22,16.51a27.26,27.26,0,0,1,4.43,3.93c.64.75,1.23,1.55,1.9,2.27a24.24,24.24,0,0,0,2.16,2c1.53,1.26,3,2.62,4.35,4a42.83,42.83,0,0,1,3.83,4.53l-.08.07a42.49,42.49,0,0,1-4.5-3.85,58.73,58.73,0,0,1-4-4.37,24.48,24.48,0,0,0-2-2.18c-.72-.67-1.52-1.27-2.26-1.92a28.13,28.13,0,0,1-3.91-4.44Z"/><path class="cls-3" d="M705.36,29.66a8,8,0,0,1,2.49-1.95c.48-.22,1-.36,1.48-.6a6.68,6.68,0,0,0,1.28-.92,17.15,17.15,0,0,1,2.55-1.86,12.49,12.49,0,0,1,2.93-1.22l0,.08a12.08,12.08,0,0,1-2.43,2,16.54,16.54,0,0,1-2.82,1.42,7.12,7.12,0,0,0-1.4.72c-.43.3-.79.71-1.2,1a8.26,8.26,0,0,1-2.88,1.33Z"/><path class="cls-3" d="M693,33.11a8.53,8.53,0,0,1,3-1.22c.53-.08,1.09-.07,1.62-.18a7.43,7.43,0,0,0,1.52-.54,17.62,17.62,0,0,1,3-1.12,12.76,12.76,0,0,1,3.23-.39l0,.09a12.77,12.77,0,0,1-3,1.33,17.59,17.59,0,0,1-3.17.61,7.14,7.14,0,0,0-1.59.33c-.5.17-1,.47-1.48.67a8.18,8.18,0,0,1-3.2.51Z"/><path class="cls-3" d="M675,82a39.92,39.92,0,0,1-4.69-4.78,39,39,0,0,1-3.93-5.42A44.55,44.55,0,0,1,675,82Z"/><path class="cls-3" d="M691,74.75A40.46,40.46,0,0,1,680.6,82a34.85,34.85,0,0,1,4.93-4A36.15,36.15,0,0,1,691,74.75Z"/><path class="cls-3" d="M691,74.75a18.47,18.47,0,0,1,3.14,3.3,17.82,17.82,0,0,1,2.35,3.9,20.91,20.91,0,0,1-5.49-7.2Z"/><path class="cls-3" d="M711.19,78.68a16.67,16.67,0,0,1-3.77,2.1A16.41,16.41,0,0,1,703.28,82a16.4,16.4,0,0,1,3.76-2.1A16.6,16.6,0,0,1,711.19,78.68Z"/><path class="cls-3" d="M684.12,58.14a2.52,2.52,0,0,1-.82-1.55,6.65,6.65,0,0,0,0-.89,2,2,0,0,0-.34-.8,5.45,5.45,0,0,1-.71-1.58,4,4,0,0,1,0-1.78l.09,0A3.94,3.94,0,0,1,683.3,53a5.18,5.18,0,0,1,.21,1.72,2.07,2.07,0,0,0,.12.86,8.78,8.78,0,0,0,.48.76,2.59,2.59,0,0,1,.1,1.75Z"/><path class="cls-3" d="M666.3,71.71a25.17,25.17,0,0,1,4.23-3.7c.79-.51,1.62-1,2.39-1.5a20.3,20.3,0,0,0,2.16-1.79,54.75,54.75,0,0,1,4.3-3.61,40.2,40.2,0,0,1,4.75-3l.07.08A39.19,39.19,0,0,1,680,62a55,55,0,0,1-4.62,3.2,21.55,21.55,0,0,0-2.3,1.61c-.72.6-1.37,1.28-2.07,1.9a25.09,25.09,0,0,1-4.68,3.12Z"/><path class="cls-3" d="M717.93,49.43a9.61,9.61,0,0,1-2.07-2.78c-.25-.53-.4-1.1-.67-1.61a7.71,7.71,0,0,0-1-1.43,20.87,20.87,0,0,1-2-2.83,14.8,14.8,0,0,1-1.35-3.22l.08-.05a15.13,15.13,0,0,1,2.18,2.72,19.45,19.45,0,0,1,1.54,3.1,7.72,7.72,0,0,0,.79,1.54c.32.48.75.89,1.1,1.35A9.49,9.49,0,0,1,718,49.38Z"/><path class="cls-3" d="M698.81,44.87a24.77,24.77,0,0,1,4.57-3.21c.83-.43,1.69-.79,2.5-1.24a20.29,20.29,0,0,0,2.32-1.54,55.09,55.09,0,0,1,4.62-3.13,39.47,39.47,0,0,1,5-2.49l.06.09a38.83,38.83,0,0,1-4.5,3.31,52.61,52.61,0,0,1-4.89,2.68,20.78,20.78,0,0,0-2.44,1.36c-.77.51-1.48,1.12-2.24,1.67A25.24,25.24,0,0,1,698.87,45Z"/><path class="cls-3" d="M693.27,33.11A8.6,8.6,0,0,1,695,35.9c.17.51.26,1.07.47,1.58a7.09,7.09,0,0,0,.8,1.42,18.34,18.34,0,0,1,1.64,2.84,13.25,13.25,0,0,1,1,3.15l-.09,0A13.55,13.55,0,0,1,697,42.2a17.4,17.4,0,0,1-1.17-3.06,7.76,7.76,0,0,0-.6-1.52c-.27-.48-.65-.9-.93-1.37a8.6,8.6,0,0,1-1.08-3.1Z"/><path class="cls-3" d="M684.13,58.09a19.35,19.35,0,0,1,3.43-3.57c.65-.5,1.36-.94,2-1.47a16,16,0,0,0,1.76-1.73,42.81,42.81,0,0,1,3.5-3.5,29.11,29.11,0,0,1,4-2.94l.06.07a29.86,29.86,0,0,1-3.34,3.66,44.3,44.3,0,0,1-3.84,3.12,15.19,15.19,0,0,0-1.91,1.57c-.59.57-1.1,1.23-1.67,1.84a20,20,0,0,1-3.91,3Z"/><path class="cls-3" d="M705.25,61.12a15.25,15.25,0,0,1-2-3.91c-.2-.7-.33-1.43-.57-2.12a12.21,12.21,0,0,0-.91-2,32.24,32.24,0,0,1-1.85-4,24,24,0,0,1-1.17-4.23l.1,0A23.89,23.89,0,0,1,701,48.76a33,33,0,0,1,1.37,4.15A13.15,13.15,0,0,0,703,55c.31.66.71,1.28,1.05,1.93a15.3,15.3,0,0,1,1.27,4.19Z"/><path class="cls-3" d="M718,49.44a14.58,14.58,0,0,1-2.92,3.19c-.58.44-1.21.82-1.76,1.28a12.93,12.93,0,0,0-1.51,1.54,31.53,31.53,0,0,1-3,3.12,22.84,22.84,0,0,1-3.5,2.57l-.07-.07a22.37,22.37,0,0,1,2.84-3.28,32.78,32.78,0,0,1,3.35-2.74,11.58,11.58,0,0,0,1.66-1.38c.5-.51.93-1.11,1.41-1.65a15.06,15.06,0,0,1,3.42-2.65Z"/><path class="cls-3" d="M691,74.77a16.17,16.17,0,0,1-2.05-4c-.22-.72-.37-1.47-.63-2.18a13.41,13.41,0,0,0-1-2,36.88,36.88,0,0,1-2-4.06,25.22,25.22,0,0,1-1.27-4.34l.09,0a25.51,25.51,0,0,1,2.16,4,35.16,35.16,0,0,1,1.48,4.26,14.42,14.42,0,0,0,.75,2.12c.32.68.75,1.31,1.1,2a16.28,16.28,0,0,1,1.37,4.29Z"/><path class="cls-3" d="M705.33,61.14A19.1,19.1,0,0,1,702,64.82c-.64.51-1.33,1-2,1.52a15.22,15.22,0,0,0-1.71,1.79,42.7,42.7,0,0,1-3.39,3.6,30.75,30.75,0,0,1-3.9,3.06l-.07-.07A29.27,29.27,0,0,1,694.23,71,39.74,39.74,0,0,1,698,67.73a16,16,0,0,0,1.86-1.62c.57-.6,1.06-1.27,1.61-1.89a19.08,19.08,0,0,1,3.82-3.15Z"/><path class="cls-3" d="M711.14,78.7a17.29,17.29,0,0,1-1.82-4.28c-.18-.76-.29-1.54-.5-2.28A14.2,14.2,0,0,0,708,70a37.93,37.93,0,0,1-1.72-4.31,27.54,27.54,0,0,1-1-4.55l.1,0a26.46,26.46,0,0,1,1.93,4.24,38,38,0,0,1,1.23,4.48,14.5,14.5,0,0,0,.63,2.23c.28.72.67,1.4,1,2.11a17.66,17.66,0,0,1,1.13,4.51Z"/></g><polyline class="cls-1" points="0 81.95 0 0 792 0 792 81.95"/></g></g></g></svg>